<svg version="1.1" id="Layer_1" xmlns="http://www.w3.org/2000/svg" xmlns:xlink="http://www.w3.org/1999/xlink" x="0px" y="0px"
	 width="100%" viewBox="0 0 512 512" enable-background="new 0 0 512 512" xml:space="preserve">
<path fill="#000000" opacity="1.000000" stroke="none" 
	d="
M323.000000,513.000000 
	C215.359482,513.000000 108.218956,513.000000 1.039217,513.000000 
	C1.039217,342.401123 1.039217,171.802231 1.039217,1.101671 
	C171.557190,1.101671 342.114471,1.101671 512.835876,1.101671 
	C512.835876,171.666534 512.835876,342.333252 512.835876,513.000000 
	C449.802216,513.000000 386.651093,513.000000 323.000000,513.000000 
M318.287567,195.206818 
	C321.206024,189.420120 323.910217,183.513046 327.081635,177.868454 
	C338.243866,158.001755 353.939545,142.543365 373.595795,131.139267 
	C381.483154,126.563217 389.658051,122.484795 397.625641,118.042747 
	C398.770905,117.404243 399.484802,115.991966 401.124878,114.099373 
	C396.910217,113.636818 393.921112,112.707329 391.126740,113.114418 
	C382.612823,114.354759 374.003448,115.496742 365.741150,117.792358 
	C348.099701,122.693878 333.374756,132.522751 321.248840,146.246338 
	C310.486725,158.426376 303.203400,172.469238 297.974121,188.016556 
	C283.776093,184.147537 269.389618,181.734131 254.604065,181.973831 
	C241.208435,182.190994 228.220520,184.839523 215.048203,187.329666 
	C214.020966,184.266235 213.106918,181.159286 211.947922,178.146545 
	C205.035492,160.178070 194.109222,145.181458 178.870544,133.319931 
	C166.694778,123.842537 152.800980,118.246628 137.889206,115.058029 
	C130.032486,113.378021 122.047356,111.324959 112.839577,114.947357 
	C115.081032,116.893875 116.489365,118.614746 118.298241,119.600914 
	C125.819023,123.701134 133.658737,127.245895 141.015274,131.611496 
	C155.047012,139.938370 167.377853,150.198471 177.264633,163.450653 
	C184.815414,173.571640 190.961502,184.352249 195.318436,196.155502 
	C177.098343,205.338074 160.491119,216.702484 146.149551,231.653198 
	C134.020691,228.016327 122.157600,223.828354 111.282372,217.096344 
	C96.126236,207.714386 83.450981,196.011703 76.044968,179.534546 
	C71.932465,170.384933 68.698158,160.842697 64.947212,151.526062 
	C64.421730,150.220856 63.204609,149.194138 62.307648,148.038498 
	C61.444767,149.261032 60.220531,150.365555 59.776596,151.724899 
	C56.448986,161.914047 57.883644,172.181976 60.081947,182.267197 
	C64.015015,200.311035 72.687706,215.236557 89.243378,224.807068 
	C103.587975,233.099396 117.754089,241.700485 131.737061,250.792496 
	C129.420792,254.398849 126.727417,257.821625 124.864655,261.648712 
	C120.637871,270.332733 116.819878,279.215759 112.023560,288.009827 
	C96.873459,285.403564 82.969017,279.441376 70.504997,270.737701 
	C61.542881,264.479401 53.627396,256.728973 45.171673,249.732773 
	C43.597641,248.430435 41.675041,247.549362 38.893791,245.851501 
	C39.104916,249.167831 38.886154,251.046295 39.382107,252.711914 
	C45.279774,272.518585 56.982998,288.192017 73.640068,300.252258 
	C84.211838,307.906555 96.025612,312.655090 108.663567,315.777283 
	C108.405563,332.443207 111.761276,347.974091 123.176720,361.688782 
	C129.709595,370.809082 138.389679,377.508911 148.001358,382.951996 
	C177.970230,399.923462 211.033875,404.342407 244.647186,405.868286 
	C255.705261,406.370300 266.840729,405.489594 277.926758,404.951538 
	C286.786926,404.521484 295.715942,404.229401 304.456390,402.864441 
	C326.214752,399.466522 347.419403,393.909241 366.602844,382.648987 
	C376.080231,377.086029 385.002716,370.598969 391.720276,360.760284 
	C393.737701,357.702393 396.021912,354.785370 397.724579,351.561249 
	C403.762115,340.128357 405.682770,327.798767 405.947693,314.965851 
	C410.182648,313.886597 414.551697,313.171265 418.630554,311.668365 
	C443.202240,302.614441 460.561249,285.719269 471.334656,262.043396 
	C473.409790,257.483032 474.301514,252.384155 475.739136,247.533707 
	C475.228363,247.229553 474.717590,246.925400 474.206787,246.621262 
	C472.806732,247.240295 471.177582,247.585403 470.049164,248.529236 
	C466.513611,251.486450 463.044098,254.545425 459.769592,257.787781 
	C449.524567,267.932129 437.659668,275.713348 424.366119,281.042023 
	C416.907043,284.031982 408.917786,285.699158 400.817596,287.281311 
	C396.196442,274.072296 390.334320,261.492401 382.653076,249.848450 
	C396.070343,241.904785 409.452820,233.901611 422.914948,226.034683 
	C435.591278,218.626953 445.490356,208.719009 449.976440,194.511261 
	C452.598938,186.205795 454.783569,177.608047 455.741364,168.983673 
	C456.409424,162.967896 454.756317,156.670731 453.894226,150.533813 
	C453.763275,149.601837 452.296417,148.857529 451.447449,148.026428 
	C450.734070,148.790405 449.720825,149.436508 449.365204,150.341141 
	C448.418060,152.750412 447.692200,155.253510 446.987061,157.750015 
	C438.580353,187.513138 420.595795,209.371246 392.627197,222.595932 
	C384.485779,226.445526 375.693115,228.917770 366.907288,231.398315 
	C360.852325,225.911942 355.256287,219.776886 348.634369,215.091888 
	C338.811005,208.141907 328.260895,202.219177 318.287567,195.206818 
z"/>
<path fill="#D1D3D4" opacity="1.000000" stroke="none" 
	d="
M405.165894,315.001160 
	C405.682770,327.798767 403.762115,340.128357 397.724579,351.561249 
	C396.021912,354.785370 393.737701,357.702393 390.963806,360.877869 
	C388.395721,361.180481 386.545227,361.189545 384.778900,361.579651 
	C374.794647,363.784943 365.155060,363.208984 355.391296,359.738708 
	C331.092010,351.102203 306.639587,342.894348 282.217285,334.606812 
	C267.711914,329.684479 252.743774,328.570099 238.144684,332.964233 
	C216.811752,339.385132 195.887955,347.153168 174.693604,354.051575 
	C163.384674,357.732422 152.592072,363.722137 140.165527,362.950684 
	C134.389557,362.592163 128.646133,361.709320 122.887955,361.064148 
	C111.761276,347.974091 108.405563,332.443207 108.828140,314.968506 
	C109.192657,312.530487 109.355011,310.895660 109.599052,309.273071 
	C110.664993,302.186066 111.754639,295.102600 112.835678,288.017853 
	C116.819878,279.215759 120.637871,270.332733 124.864655,261.648712 
	C126.727417,257.821625 129.420792,254.398849 132.181198,250.332642 
	C137.351791,243.921234 142.078247,237.969666 146.804718,232.018097 
	C160.491119,216.702484 177.098343,205.338074 196.024872,196.076294 
	C202.925446,193.363739 209.119568,190.730392 215.313705,188.097061 
	C228.220520,184.839523 241.208435,182.190994 254.604065,181.973831 
	C269.389618,181.734131 283.776093,184.147537 298.533081,188.363983 
	C305.401428,191.094009 311.710785,193.476593 318.020142,195.859161 
	C328.260895,202.219177 338.811005,208.141907 348.634369,215.091888 
	C355.256287,219.776886 360.852325,225.911942 367.090393,232.036987 
	C372.182678,238.505524 377.091888,244.335403 382.001099,250.165283 
	C390.334320,261.492401 396.196442,274.072296 400.904053,288.036560 
	C402.382324,297.528229 403.774109,306.264709 405.165894,315.001160 
M180.467346,236.725189 
	C173.668945,241.244263 170.959976,248.091629 170.343658,255.758224 
	C170.039261,259.544861 170.792664,264.281006 175.087952,265.148926 
	C177.874908,265.712036 181.908829,264.144104 184.230148,262.172455 
	C189.944229,257.319214 192.410614,250.593552 191.939194,243.067612 
	C191.515976,236.311005 187.445755,233.887634 180.467346,236.725189 
M322.290924,248.843933 
	C323.805511,254.747543 326.303558,260.098785 331.361969,263.807129 
	C336.897552,267.865387 341.620056,266.077362 343.180481,259.402740 
	C344.597412,253.342010 342.562836,247.965836 339.504028,242.916992 
	C336.111816,237.317780 330.760895,233.878494 327.253113,235.308899 
	C321.381500,237.703217 321.871521,242.979202 322.290924,248.843933 
z"/>
<path fill="#A7A9AC" opacity="1.000000" stroke="none" 
	d="
M123.032333,361.376465 
	C128.646133,361.709320 134.389557,362.592163 140.165527,362.950684 
	C152.592072,363.722137 163.384674,357.732422 174.693604,354.051575 
	C195.887955,347.153168 216.811752,339.385132 238.144684,332.964233 
	C252.743774,328.570099 267.711914,329.684479 282.217285,334.606812 
	C306.639587,342.894348 331.092010,351.102203 355.391296,359.738708 
	C365.155060,363.208984 374.794647,363.784943 384.778900,361.579651 
	C386.545227,361.189545 388.395721,361.180481 390.646973,361.022003 
	C385.002716,370.598969 376.080231,377.086029 366.602844,382.648987 
	C347.419403,393.909241 326.214752,399.466522 304.456390,402.864441 
	C295.715942,404.229401 286.786926,404.521484 277.926758,404.951538 
	C266.840729,405.489594 255.705261,406.370300 244.647186,405.868286 
	C211.033875,404.342407 177.970230,399.923462 148.001358,382.951996 
	C138.389679,377.508911 129.709595,370.809082 123.032333,361.376465 
z"/>
<path fill="#EC008C" opacity="1.000000" stroke="none" 
	d="
M318.153870,195.532990 
	C311.710785,193.476593 305.401428,191.094009 298.926941,188.378326 
	C303.203400,172.469238 310.486725,158.426376 321.248840,146.246338 
	C333.374756,132.522751 348.099701,122.693878 365.741150,117.792358 
	C374.003448,115.496742 382.612823,114.354759 391.126740,113.114418 
	C393.921112,112.707329 396.910217,113.636818 401.124878,114.099373 
	C399.484802,115.991966 398.770905,117.404243 397.625641,118.042747 
	C389.658051,122.484795 381.483154,126.563217 373.595795,131.139267 
	C353.939545,142.543365 338.243866,158.001755 327.081635,177.868454 
	C323.910217,183.513046 321.206024,189.420120 318.153870,195.532990 
z"/>
<path fill="#EC008C" opacity="1.000000" stroke="none" 
	d="
M215.180954,187.713364 
	C209.119568,190.730392 202.925446,193.363739 196.356400,195.928009 
	C190.961502,184.352249 184.815414,173.571640 177.264633,163.450653 
	C167.377853,150.198471 155.047012,139.938370 141.015274,131.611496 
	C133.658737,127.245895 125.819023,123.701134 118.298241,119.600914 
	C116.489365,118.614746 115.081032,116.893875 112.839577,114.947357 
	C122.047356,111.324959 130.032486,113.378021 137.889206,115.058029 
	C152.800980,118.246628 166.694778,123.842537 178.870544,133.319931 
	C194.109222,145.181458 205.035492,160.178070 211.947922,178.146545 
	C213.106918,181.159286 214.020966,184.266235 215.180954,187.713364 
z"/>
<path fill="#EC008C" opacity="1.000000" stroke="none" 
	d="
M382.327087,250.006866 
	C377.091888,244.335403 372.182678,238.505524 367.236237,232.348511 
	C375.693115,228.917770 384.485779,226.445526 392.627197,222.595932 
	C420.595795,209.371246 438.580353,187.513138 446.987061,157.750015 
	C447.692200,155.253510 448.418060,152.750412 449.365204,150.341141 
	C449.720825,149.436508 450.734070,148.790405 451.447449,148.026428 
	C452.296417,148.857529 453.763275,149.601837 453.894226,150.533813 
	C454.756317,156.670731 456.409424,162.967896 455.741364,168.983673 
	C454.783569,177.608047 452.598938,186.205795 449.976440,194.511261 
	C445.490356,208.719009 435.591278,218.626953 422.914948,226.034683 
	C409.452820,233.901611 396.070343,241.904785 382.327087,250.006866 
z"/>
<path fill="#EC008C" opacity="1.000000" stroke="none" 
	d="
M146.477127,231.835632 
	C142.078247,237.969666 137.351791,243.921234 132.312210,250.018951 
	C117.754089,241.700485 103.587975,233.099396 89.243378,224.807068 
	C72.687706,215.236557 64.015015,200.311035 60.081947,182.267197 
	C57.883644,172.181976 56.448986,161.914047 59.776596,151.724899 
	C60.220531,150.365555 61.444767,149.261032 62.307648,148.038498 
	C63.204609,149.194138 64.421730,150.220856 64.947212,151.526062 
	C68.698158,160.842697 71.932465,170.384933 76.044968,179.534546 
	C83.450981,196.011703 96.126236,207.714386 111.282372,217.096344 
	C122.157600,223.828354 134.020691,228.016327 146.477127,231.835632 
z"/>
<path fill="#EC008C" opacity="1.000000" stroke="none" 
	d="
M112.429619,288.013855 
	C111.754639,295.102600 110.664993,302.186066 109.599052,309.273071 
	C109.355011,310.895660 109.192657,312.530487 108.913422,314.580444 
	C96.025612,312.655090 84.211838,307.906555 73.640068,300.252258 
	C56.982998,288.192017 45.279774,272.518585 39.382107,252.711914 
	C38.886154,251.046295 39.104916,249.167831 38.893791,245.851501 
	C41.675041,247.549362 43.597641,248.430435 45.171673,249.732773 
	C53.627396,256.728973 61.542881,264.479401 70.504997,270.737701 
	C82.969017,279.441376 96.873459,285.403564 112.429619,288.013855 
z"/>
<path fill="#EC008C" opacity="1.000000" stroke="none" 
	d="
M405.556793,314.983521 
	C403.774109,306.264709 402.382324,297.528229 401.078979,288.377045 
	C408.917786,285.699158 416.907043,284.031982 424.366119,281.042023 
	C437.659668,275.713348 449.524567,267.932129 459.769592,257.787781 
	C463.044098,254.545425 466.513611,251.486450 470.049164,248.529236 
	C471.177582,247.585403 472.806732,247.240295 474.206787,246.621262 
	C474.717590,246.925400 475.228363,247.229553 475.739136,247.533707 
	C474.301514,252.384155 473.409790,257.483032 471.334656,262.043396 
	C460.561249,285.719269 443.202240,302.614441 418.630554,311.668365 
	C414.551697,313.171265 410.182648,313.886597 405.556793,314.983521 
z"/>
<path fill="#434244" opacity="1.000000" stroke="none" 
	d="
M180.768250,236.497726 
	C187.445755,233.887634 191.515976,236.311005 191.939194,243.067612 
	C192.410614,250.593552 189.944229,257.319214 184.230148,262.172455 
	C181.908829,264.144104 177.874908,265.712036 175.087952,265.148926 
	C170.792664,264.281006 170.039261,259.544861 170.343658,255.758224 
	C170.959976,248.091629 173.668945,241.244263 180.768250,236.497726 
z"/>
<path fill="#434244" opacity="1.000000" stroke="none" 
	d="
M322.201904,248.429550 
	C321.871521,242.979202 321.381500,237.703217 327.253113,235.308899 
	C330.760895,233.878494 336.111816,237.317780 339.504028,242.916992 
	C342.562836,247.965836 344.597412,253.342010 343.180481,259.402740 
	C341.620056,266.077362 336.897552,267.865387 331.361969,263.807129 
	C326.303558,260.098785 323.805511,254.747543 322.201904,248.429550 
z"/>
</svg>